<?xml version="1.0" encoding="UTF-8"?>
<svg width="24px" height="22px" viewBox="0 0 24 22" version="1.1" xmlns="http://www.w3.org/2000/svg" xmlns:xlink="http://www.w3.org/1999/xlink">
    <title>设置 (3)</title>
    <defs>
        <filter color-interpolation-filters="auto" id="filter-1">
            <feColorMatrix in="SourceGraphic" type="matrix" values="0 0 0 0 1.000000 0 0 0 0 1.000000 0 0 0 0 1.000000 0 0 0 1.000000 0"></feColorMatrix>
        </filter>
    </defs>
    <g id="页面-1" stroke="none" stroke-width="1" fill="none" fill-rule="evenodd">
        <g id="设置-(3)" transform="translate(-1772.000000, -24.000000)" filter="url(#filter-1)">
            <g transform="translate(1772.000000, 24.000000)">
                <path d="M22.5851685,12.673913 L18.7259925,19.3695652 C18.1195506,20.373913 17.0169288,21.0434783 15.859176,21.0434783 L8.14082397,21.0434783 C6.98307116,21.0434783 5.88044944,20.4297101 5.2740075,19.3695652 L1.41483146,12.673913 C0.808389514,11.6137681 0.808389514,10.3304348 1.41483146,9.32608694 L5.2740075,2.63043478 C5.88044944,1.62608697 6.98307116,0.956521739 8.14082397,0.956521739 L15.859176,0.956521739 C17.0169288,0.956521739 18.1195506,1.57028985 18.7259925,2.63043478 L22.5851685,9.32608694 C23.1916105,10.3304348 23.1916105,11.6695652 22.5851685,12.673913 Z" id="路径" stroke="#979797" stroke-width="1.6896" fill-rule="nonzero"></path>
                <path d="M12,7.65217391 C10.1333333,7.65217391 8.64,9.14009662 8.64,11 C8.64,12.8599034 10.1333333,14.3478261 12,14.3478261 C13.8666666,14.3478261 15.36,12.8599034 15.36,11 C15.36,9.14009662 13.8666667,7.65217391 12,7.65217391 Z" id="路径" stroke="#979797" stroke-width="1.536" fill-rule="nonzero"></path>
            </g>
        </g>
    </g>
</svg>