<?xml version="1.0" encoding="UTF-8"?>
<svg width="22px" height="22px" viewBox="0 0 22 22" version="1.1" xmlns="http://www.w3.org/2000/svg" xmlns:xlink="http://www.w3.org/1999/xlink">
    <title>编组 34</title>
    <g id="页面-1" stroke="none" stroke-width="1" fill="none" fill-rule="evenodd">
        <g id="患者列表（卡片）备份-2" transform="translate(-974.000000, -869.000000)">
            <g id="编组-15备份-2" transform="translate(957.000000, 858.000000)">
                <g id="编组-34" transform="translate(17.000000, 11.000000)">
                    <path d="M3,1 L19,1 C20.1045695,1 21,1.8954305 21,3 L21,15 C21,16.1045695 20.1045695,17 19,17 L11.1656854,17 C11.0595988,17 10.9578573,17.0421427 10.8828427,17.1171573 L8.24888519,19.7511148 C7.8583609,20.1416391 7.22519592,20.1416391 6.83467163,19.7511148 C6.70651281,19.622956 6.61559403,19.4623761 6.57163591,19.2865437 L6.07574644,17.3029857 C6.03122974,17.1249189 5.87123649,17 5.68768944,17 L3,17 C1.8954305,17 1,16.1045695 1,15 L1,3 C1,1.8954305 1.8954305,1 3,1 Z" id="矩形" stroke="#B9B9B9" stroke-width="1.6"></path>
                    <circle id="椭圆形" fill="#B9B9B9" cx="6.5" cy="9.5" r="1.5"></circle>
                    <circle id="椭圆形备份-3" fill="#B9B9B9" cx="11" cy="9.5" r="1.5"></circle>
                    <circle id="椭圆形备份-4" fill="#B9B9B9" cx="15.5" cy="9.5" r="1.5"></circle>
                </g>
            </g>
        </g>
    </g>
</svg>