<?xml version="1.0" encoding="UTF-8"?>
<svg width="17px" height="14px" viewBox="0 0 17 14" version="1.1" xmlns="http://www.w3.org/2000/svg" xmlns:xlink="http://www.w3.org/1999/xlink">
    <title>微信 (3)</title>
    <g id="页面-1" stroke="none" stroke-width="1" fill="none" fill-rule="evenodd">
        <g id="患者列表基础信息-家庭标签" transform="translate(-1240.000000, -504.000000)" fill="#00C800" fill-rule="nonzero">
            <g id="编组-25" transform="translate(1117.000000, 336.000000)">
                <g id="编组-19" transform="translate(1.000000, 155.000000)">
                    <g id="微信-(3)" transform="translate(122.000000, 13.000000)">
                        <path d="M17,8.97784888 C17,6.54516367 14.5921211,4.56386906 11.8894346,4.56386906 C9.02656375,4.56386906 6.77205293,6.54688654 6.77205293,8.97784888 C6.77205293,11.4139798 9.02656375,13.3918287 11.8894346,13.3918287 C12.4892743,13.3918287 13.0942261,13.2384937 13.6957698,13.0868816 L15.3453288,14 L14.8920409,12.4804332 C16.1002406,11.5638691 17,10.3492493 17,8.97784888 Z M10.3063352,8.30248585 C9.92973136,8.30248585 9.62469928,7.99409303 9.62469928,7.6133399 C9.62469928,7.23258676 9.92973136,6.92419395 10.3063352,6.92419395 C10.6829391,6.92419395 10.9879711,7.23258676 10.9879711,7.6133399 C10.9879711,7.99237017 10.6829391,8.30248585 10.3063352,8.30248585 Z M13.6173817,8.29731725 C13.2407779,8.29731725 12.9357458,7.98892444 12.9357458,7.6081713 C12.9357458,7.22741816 13.2407779,6.91902535 13.6173817,6.91902535 C13.9939856,6.91902535 14.2990176,7.22741816 14.2990176,7.6081713 C14.2990176,7.98892444 13.9939856,8.29731725 13.6173817,8.29731725 Z" id="形状"></path>
                        <path d="M6.01714114,-5.68434189e-14 C2.70950281,-5.68434189e-14 0,2.27935023 0,5.17376323 C0,6.84494216 0.901463512,8.2163426 2.40787891,9.2810731 L1.8063352,11.1107556 L3.90918204,10.0443022 C4.66238974,10.1941915 5.26563753,10.3492493 6.01714114,10.3492493 C6.20629511,10.3492493 6.39374499,10.340635 6.57949078,10.3251292 C6.46190858,9.9185331 6.39374499,9.49298548 6.39374499,9.05020921 C6.39374499,6.3918287 8.65166399,4.23480187 11.5094226,4.23480187 C11.7053929,4.23480187 11.8979551,4.24858479 12.0888132,4.27098203 C11.5673617,1.82106818 8.97544106,-5.68434189e-14 6.01714114,-5.68434189e-14 Z M3.99609062,4.1745016 C3.54450682,4.1745016 3.17812751,3.80408565 3.17812751,3.34752646 C3.17812751,2.89096727 3.54450682,2.52055132 3.99609062,2.52055132 C4.44767442,2.52055132 4.81405373,2.89096727 4.81405373,3.34752646 C4.81405373,3.80408565 4.44767442,4.1745016 3.99609062,4.1745016 Z M8.1983761,4.1745016 C7.7467923,4.1745016 7.38041299,3.80408565 7.38041299,3.34752646 C7.38041299,2.89096727 7.7467923,2.52055132 8.1983761,2.52055132 C8.6499599,2.52055132 9.01633921,2.89096727 9.01633921,3.34752646 C9.01633921,3.80408565 8.6499599,4.1745016 8.1983761,4.1745016 Z" id="形状"></path>
                    </g>
                </g>
            </g>
        </g>
    </g>
</svg>