<?xml version="1.0" encoding="UTF-8"?>
<svg width="20px" height="20px" viewBox="0 0 20 20" version="1.1" xmlns="http://www.w3.org/2000/svg" xmlns:xlink="http://www.w3.org/1999/xlink">
    <title>编组 27</title>
    <defs>
        <filter color-interpolation-filters="auto" id="filter-1">
            <feColorMatrix in="SourceGraphic" type="matrix" values="0 0 0 0 0.129412 0 0 0 0 0.450980 0 0 0 0 0.976471 0 0 0 1.000000 0"></feColorMatrix>
        </filter>
    </defs>
    <g id="页面-1" stroke="none" stroke-width="1" fill="none" fill-rule="evenodd">
        <g id="患者列表快捷服务-挂号服务" transform="translate(-426.000000, -789.000000)">
            <g id="编组-35" transform="translate(408.000000, 778.000000)">
                <g id="编组-27" transform="translate(18.000000, 10.000000)" filter="url(#filter-1)">
                    <g transform="translate(0.000000, 1.000000)">
                        <rect id="矩形备份-3" fill="#B9B9B9" transform="translate(10.000000, 11.636364) rotate(-90.000000) translate(-10.000000, -11.636364) " x="6.36363636" y="10.9090909" width="7.27272727" height="1.45454545" rx="0.727272727"></rect>
                        <path d="M7.09090909,10.9090909 L12.9090909,10.9090909 C13.3107525,10.9090909 13.6363636,11.234702 13.6363636,11.6363636 C13.6363636,12.0380253 13.3107525,12.3636364 12.9090909,12.3636364 L7.09090909,12.3636364 C6.68924745,12.3636364 6.36363636,12.0380253 6.36363636,11.6363636 C6.36363636,11.234702 6.68924745,10.9090909 7.09090909,10.9090909 Z" id="矩形备份-4" fill="#B9B9B9" transform="translate(10.000000, 11.636364) rotate(-180.000000) translate(-10.000000, -11.636364) "></path>
                        <rect id="矩形" stroke="#B9B9B9" stroke-width="1.44" x="0.909090909" y="4.54545455" width="18.1818182" height="13.6363636" rx="1.8"></rect>
                        <path d="M5.45454545,4.54545455 L5.45454545,2.72727273 C5.45454545,2.22519568 5.90678308,1.81818182 6.46464646,1.81818182 L13.5353535,1.81818182 C14.0932169,1.81818182 14.5454545,2.22519568 14.5454545,2.72727273 L14.5454545,4.54545455" id="路径" stroke="#B9B9B9" stroke-width="1.44"></path>
                        <rect id="矩形" fill="#D8D8D8" opacity="0" x="0" y="0" width="20" height="20"></rect>
                    </g>
                </g>
            </g>
        </g>
    </g>
</svg>