<?xml version="1.0" standalone="no"?><!DOCTYPE svg PUBLIC "-//W3C//DTD SVG 1.1//EN" "http://www.w3.org/Graphics/SVG/1.1/DTD/svg11.dtd"><svg t="1629353738388" class="icon" viewBox="0 0 1024 1024" version="1.1" xmlns="http://www.w3.org/2000/svg" p-id="848" xmlns:xlink="http://www.w3.org/1999/xlink" width="200" height="200"><defs><style type="text/css"></style></defs><path d="M490.068502 284.411585c12.692067-12.692067 33.187867-12.773931 45.778626-0.184195L949.61791899 697.999205c12.590759 12.590759 12.50787199 33.086559-0.18419499 45.778626l0 0c-12.692067 12.692067-33.187867 12.773931-45.778626 0.184195l-413.771815-413.771815C477.29457 317.599452 477.376435 297.103652 490.068502 284.411585L490.068502 284.411585z" p-id="849"></path><path d="M76.148307 742.737128c-12.692067-12.692067-12.773931-33.187867-0.184195-45.778626L489.735927 283.18771099c12.590759-12.590759 33.086559-12.50787199 45.778626 0.18419501l0 0c12.692067 12.692067 12.773931 33.187867 0.18419501 45.778626l-413.77079101 413.770791C109.336174 755.51106 88.840374 755.429195 76.148307 742.737128L76.148307 742.737128z" p-id="850"></path></svg>