<?xml version="1.0" encoding="UTF-8"?>
<svg width="24px" height="24px" viewBox="0 0 24 24" version="1.1" xmlns="http://www.w3.org/2000/svg" xmlns:xlink="http://www.w3.org/1999/xlink">
    <title>消息 (5)</title>
    <defs>
        <filter color-interpolation-filters="auto" id="filter-1">
            <feColorMatrix in="SourceGraphic" type="matrix" values="0 0 0 0 1.000000 0 0 0 0 1.000000 0 0 0 0 1.000000 0 0 0 1.000000 0"></feColorMatrix>
        </filter>
    </defs>
    <g id="页面-1" stroke="none" stroke-width="1" fill="none" fill-rule="evenodd">
        <g id="消息-(5)" transform="translate(-1709.000000, -23.000000)" filter="url(#filter-1)">
            <g transform="translate(1709.000000, 23.000000)">
                <rect id="矩形" stroke="#979797" fill="#D8D8D8" opacity="0" x="0.5" y="0.5" width="23" height="23"></rect>
                <path d="M12,23 C9.50177894,23 7.47058824,21.0072093 7.47058824,18.5590698 C7.47058824,18.1356977 7.82151328,17.7916279 8.25332068,17.7916279 L15.7479839,17.7916279 C16.1797913,17.7916279 16.5307163,18.1356977 16.5307163,18.5590698 C16.5294118,21.0072093 14.4982211,23 12,23 L12,23 Z M9.14041746,19.3265116 C9.48481973,20.5582558 10.636741,21.4651163 12,21.4651163 C13.363259,21.4651163 14.5151803,20.5569767 14.8595825,19.3265116 L9.14041746,19.3265116 Z" id="形状" fill="#FC4138" fill-rule="nonzero"></path>
                <path d="M20.1939042,19.3265116 L3.80609583,19.3265116 C2.25889469,19.3265116 1,18.0922093 1,16.5752326 C1,15.0582558 2.25889469,13.8239535 3.80609583,13.8239535 L4.19746205,13.8239535 L4.19746205,8.65011628 C4.19746205,4.43174419 7.69758065,1 12,1 C16.3024194,1 19.802538,4.43174419 19.802538,8.65011628 L19.802538,13.8239535 L20.1939042,13.8239535 C21.7411053,13.8239535 23,15.0582558 23,16.5752326 C23,18.0922093 21.7411053,19.3265116 20.1939042,19.3265116 Z M3.80609583,15.3575581 C3.12250949,15.3575581 2.5654649,15.9037209 2.5654649,16.5739535 C2.5654649,17.244186 3.12250949,17.7903488 3.80609583,17.7903488 L20.1939042,17.7903488 C20.8774905,17.7903488 21.4345351,17.244186 21.4345351,16.5739535 C21.4345351,15.9037209 20.8774905,15.3575581 20.1939042,15.3575581 L19.0198055,15.3575581 C18.5879981,15.3575581 18.2370731,15.0134884 18.2370731,14.5901163 L18.2370731,8.65011628 C18.2370731,5.27848837 15.4388046,2.53488372 12,2.53488372 C8.56119545,2.53488372 5.76292694,5.27848837 5.76292694,8.65011628 L5.76292694,14.5913953 C5.76292694,15.0147674 5.4120019,15.3588372 4.9801945,15.3588372 L3.80609583,15.3588372 L3.80609583,15.3575581 Z" id="形状" fill="#3E3A39" fill-rule="nonzero"></path>
            </g>
        </g>
    </g>
</svg>