<?xml version="1.0" standalone="no"?><!DOCTYPE svg PUBLIC "-//W3C//DTD SVG 1.1//EN" "http://www.w3.org/Graphics/SVG/1.1/DTD/svg11.dtd"><svg t="1629770576350" class="icon" viewBox="0 0 1024 1024" version="1.1" xmlns="http://www.w3.org/2000/svg" p-id="30599" xmlns:xlink="http://www.w3.org/1999/xlink" width="200" height="200"><defs><style type="text/css"></style></defs><path d="M337.066667 505.6c0-115.2 46.933333-221.866667 121.6-298.666667l-59.733334-59.733333c-76.8 78.933333-130.133333 183.466667-142.933333 298.666667-2.133333 19.2-4.266667 38.4-4.266667 59.733333s2.133333 40.533333 4.266667 59.733333c14.933333 121.6 70.4 230.4 155.733333 311.466667l61.866667-59.733333c-85.333333-78.933333-136.533333-187.733333-136.533333-311.466667z" p-id="30600"></path><path d="M529.066667 505.6c0-61.866667 25.6-119.466667 66.133333-162.133333L533.333333 283.733333c-55.466667 57.6-89.6 136.533333-89.6 221.866667 0 93.866667 40.533333 179.2 104.533334 236.8l61.866666-59.733333c-51.2-42.666667-81.066667-106.666667-81.066666-177.066667zM667.733333 418.133333c-21.333333 23.466667-34.133333 53.333333-34.133333 87.466667 0 42.666667 21.333333 78.933333 51.2 102.4l87.466667-85.333333-104.533334-104.533334z" p-id="30601"></path></svg>